HIERARCHY
ROOT root
{
	OFFSET 0.000000 0.000000 0.000000
	CHANNELS 6 Xposition Yposition Zposition Zrotation Yrotation Xrotation
	JOINT lhip
	{
		OFFSET 0.058581 -0.082280 -0.017664
		CHANNELS 3 Zrotation Yrotation Xrotation
		JOINT lknee
		{
			OFFSET 0.043451 -0.386469 0.008037
			CHANNELS 3 Zrotation Yrotation Xrotation
			JOINT lankle
			{
				OFFSET -0.014790 -0.426874 -0.037428
				CHANNELS 3 Zrotation Yrotation Xrotation
				JOINT ltoe
				{
					OFFSET 0.041054 -0.060286 0.122042
					CHANNELS 3 Zrotation Yrotation Xrotation
					End Site
					{
						OFFSET 0.000000 0.000000 0.000000
					}
				}
			}
		}
	}
	JOINT rhip
	{
		OFFSET -0.060310 -0.090513 -0.013543
		CHANNELS 3 Zrotation Yrotation Xrotation
		JOINT rknee
		{
			OFFSET -0.043257 -0.383688 -0.004843
			CHANNELS 3 Zrotation Yrotation Xrotation
			JOINT rankle
			{
				OFFSET 0.019056 -0.420046 -0.034562
				CHANNELS 3 Zrotation Yrotation Xrotation
				JOINT rtoe
				{
					OFFSET -0.034840 -0.062106 0.130323
					CHANNELS 3 Zrotation Yrotation Xrotation
					End Site
					{
						OFFSET 0.000000 0.000000 0.000000
					}
				}
			}
		}
	}
	JOINT lowerback
	{
		OFFSET 0.004439 0.124404 -0.038385
		CHANNELS 3 Zrotation Yrotation Xrotation
		JOINT upperback
		{
			OFFSET 0.004488 0.137956 0.026820
			CHANNELS 3 Zrotation Yrotation Xrotation
			JOINT chest
			{
				OFFSET -0.002265 0.056032 0.002855
				CHANNELS 3 Zrotation Yrotation Xrotation
				JOINT lowerneck
				{
					OFFSET -0.013390 0.211636 -0.033468
					CHANNELS 3 Zrotation Yrotation Xrotation
					JOINT upperneck
					{
						OFFSET 0.010113 0.088937 0.050410
						CHANNELS 3 Zrotation Yrotation Xrotation
						End Site
						{
							OFFSET 0.000000 0.000000 0.000000
						}
					}
				}
				JOINT lclavicle
				{
					OFFSET 0.071702 0.114000 -0.018898
					CHANNELS 3 Zrotation Yrotation Xrotation
					JOINT lshoulder
					{
						OFFSET 0.122921 0.045205 -0.019046
						CHANNELS 3 Zrotation Yrotation Xrotation
						JOINT lelbow
						{
							OFFSET 0.255332 -0.015649 -0.022946
							CHANNELS 3 Zrotation Yrotation Xrotation
							JOINT lwrist
							{
								OFFSET 0.265709 0.012698 -0.007375
								CHANNELS 3 Zrotation Yrotation Xrotation
								End Site
								{
									OFFSET 0.000000 0.000000 0.000000
								}
							}
						}
					}
				}
				JOINT rclavicle
				{
					OFFSET -0.082954 0.112472 -0.023707
					CHANNELS 3 Zrotation Yrotation Xrotation
					JOINT rshoulder
					{
						OFFSET -0.113228 0.046853 -0.008472
						CHANNELS 3 Zrotation Yrotation Xrotation
						JOINT relbow
						{
							OFFSET -0.260127 -0.014369 -0.031269
							CHANNELS 3 Zrotation Yrotation Xrotation
							JOINT rwrist
							{
								OFFSET -0.269108 0.006794 -0.006027
								CHANNELS 3 Zrotation Yrotation Xrotation
								End Site
								{
									OFFSET 0.000000 0.000000 0.000000
								}
							}
						}
					}
				}
			}
		}
	}
}
MOTION
Frames: 17
Frame Time: 0.033333
-1.692291 0.286265 1.030994 99.955856 3.696501 92.315470 7.207443 3.736041 26.874500 -0.632161 -15.923811 5.939894 -9.591687 8.004005 13.400243 0.000000 -0.000000 0.000000 -3.093351 3.520998 -34.969761 -1.270608 -14.637921 59.106621 10.353674 -2.729614 -0.080300 0.000000 -0.000000 0.000000 0.533531 -16.290720 19.486916 1.697924 -1.081006 -0.783562 1.015334 -5.878215 -0.389502 -3.451007 -0.321899 -14.937123 2.677731 8.274746 -4.000282 -29.523304 -2.268553 -2.842067 -57.476707 -23.671037 18.697495 156.206018 -67.382204 -139.238721 21.159773 -11.356161 -16.223757 24.453290 -7.581441 1.475812 50.699731 -17.583470 13.423097 -16.914754 70.198126 -9.358723 -7.758080 16.265654 1.705782 
-1.566993 0.287468 1.039852 99.432074 2.597330 93.545604 5.781319 4.018056 30.021818 1.121050 -20.734445 8.649735 -1.281773 6.843942 20.658504 0.000000 -0.000000 0.000000 -3.591877 3.534949 -34.395630 0.778290 -11.278820 36.932443 9.581391 -8.176861 1.136792 0.000000 -0.000000 0.000000 0.146068 -17.177993 16.702475 1.585566 -0.944908 -1.088956 1.499878 -6.617254 0.465723 -3.627918 -1.629065 -14.809875 2.790060 11.801769 -3.075936 -29.358684 0.525035 -1.846592 -57.038454 -24.285220 18.665894 166.435791 -67.565336 -148.721163 25.309789 -10.657661 -15.482507 23.014794 -8.735611 1.807205 51.493652 -16.909182 14.741599 -22.023749 71.088498 -15.516725 -11.909877 17.285708 2.389534 
-1.442036 0.285037 1.039035 97.754967 1.892531 92.541690 3.193825 3.681985 31.187746 0.299951 -20.891416 21.810693 -5.895308 5.342790 13.974356 0.000000 -0.000000 0.000000 -0.926441 3.212011 -30.011866 -2.453375 -9.370754 16.582227 11.421254 -13.092967 3.612989 0.000000 -0.000000 0.000000 -0.760676 -14.076689 14.082054 2.389009 -2.685031 3.785976 1.435928 -7.018265 2.023332 -2.545020 1.284414 -19.318644 1.699843 9.688280 -3.722326 -28.738383 0.078500 -2.107743 -55.517913 -25.266452 19.220002 171.926224 -69.028643 -154.378568 28.649905 -12.449931 -15.499477 25.943364 -7.977567 -0.883700 50.740553 -13.608059 16.855417 -34.363854 69.944313 -27.262067 -8.688327 17.090642 4.084372 
-1.288599 0.279835 1.023807 94.029098 2.106538 92.333590 0.522112 3.827800 26.521900 -1.224376 -13.973381 45.333505 -9.459511 5.009567 15.794354 0.000000 -0.000000 0.000000 4.169991 1.112448 -27.465707 -3.604965 -10.565586 6.050078 13.137587 -10.334010 3.822435 0.000000 -0.000000 0.000000 0.020524 -10.256407 13.224406 2.615135 -3.338093 4.966987 1.080635 -6.429707 1.428658 -2.666695 3.020236 -18.623052 0.763224 7.535612 -4.517323 -27.462523 0.884657 -1.388059 -55.408374 -20.036814 19.791377 178.877720 -71.708619 -160.766459 23.988828 -12.780361 -16.747597 28.591393 -6.584017 -0.903463 50.728302 -9.237538 16.459618 -41.811045 68.433826 -34.173459 -11.134863 16.203780 3.293413 
-1.196648 0.279158 1.008091 92.164541 2.110429 91.507695 0.407248 5.329899 23.257238 -0.543525 -10.234508 59.658907 -7.577689 6.881101 17.018220 0.000000 -0.000000 0.000000 6.052009 0.281973 -26.174521 -3.411410 -9.843400 9.687100 14.608003 -7.969086 2.600747 0.000000 -0.000000 0.000000 -0.002256 -9.209411 16.758525 2.544024 -2.167563 0.714985 1.383516 -5.727184 1.122288 -2.712935 1.265402 -17.293138 0.611771 8.279601 -4.001246 -27.667624 2.753636 -1.147560 -55.667099 -16.038578 20.290568 -170.030490 -74.355087 -172.585547 23.061336 -11.294443 -16.195877 29.756188 -6.024011 -1.773788 49.236626 -7.920129 16.044152 -43.482850 69.419940 -37.456085 -9.094020 16.673906 4.310546 
-1.076548 0.277317 0.975199 89.464478 2.876414 90.312732 1.589583 5.156403 17.841852 0.047072 -3.985448 79.211766 -2.353049 9.371898 13.543343 0.000000 -0.000000 0.000000 7.537946 5.061886 -22.301318 -0.917902 -1.768634 16.933159 -1.910952 -10.226189 -5.594410 0.000000 -0.000000 0.000000 0.626671 -8.273766 17.720842 2.945831 -0.719815 -0.154493 1.018431 -4.692381 1.972769 -3.118033 0.151964 -16.787827 0.276847 8.921714 -2.112432 -28.294327 3.209572 -0.729606 -54.202414 -12.234334 18.362227 -151.857644 -77.124906 170.157780 23.523188 -9.611406 -16.739124 29.950209 -2.501724 -0.727225 48.737301 -2.833364 15.566376 -53.782351 70.283346 -44.985372 -9.685614 16.007777 1.401874 
-0.963262 0.276261 0.943847 85.751026 2.805527 89.005152 2.070013 3.709508 10.159787 0.097870 2.097973 97.819790 -0.660625 9.324779 9.338864 0.000000 -0.000000 0.000000 9.907321 7.936695 -22.145299 -1.923125 -0.993027 33.866423 -7.915808 -15.547766 -17.918643 0.000000 -0.000000 0.000000 0.161577 -6.345506 19.592929 2.935642 0.983467 -0.083257 0.811112 -3.761688 2.180715 -1.631389 0.606925 -17.917853 -1.438753 9.105644 -0.718733 -29.370953 2.880404 -0.135129 -53.802470 -6.761043 16.932855 -149.547827 -79.004538 167.835057 21.731920 -12.268595 -14.045909 30.396722 1.917315 -1.337797 47.186853 2.786501 15.724692 -66.159414 70.853372 -55.459447 -8.798501 16.223025 0.937627 
-0.850628 0.277804 0.932585 85.603720 3.130834 87.669317 3.198764 1.288636 -0.565268 -2.612522 5.081100 110.460174 3.085237 5.203596 6.124391 0.000000 -0.000000 0.000000 10.307424 7.225717 -13.445721 -0.336202 -0.367528 36.181135 -8.115818 -17.464280 -25.802331 0.000000 -0.000000 0.000000 0.675496 -5.290155 22.244647 3.535478 0.488349 0.773878 0.439548 -2.727049 1.523057 -0.374732 0.048596 -19.103335 -3.286756 9.982703 -2.528695 -31.667999 4.517517 0.538442 -52.246338 -4.090333 14.938902 -141.420364 -79.256096 161.789548 22.498796 -10.396058 -14.578807 30.432529 4.982145 -2.399100 45.150594 10.169326 15.132268 -77.028566 72.195198 -64.068525 -11.283725 16.925607 0.219830 
-0.741932 0.278720 0.937264 84.730119 1.098818 88.868177 1.552901 -2.571365 -15.010312 -2.902314 9.579773 115.252879 2.297677 4.352740 0.077374 0.000000 -0.000000 0.000000 8.707581 3.266054 -5.748498 -0.890491 2.288110 34.568478 -5.341419 -15.924472 -29.203739 0.000000 -0.000000 0.000000 -0.059853 0.270136 20.714253 3.438717 -0.965251 0.455478 -0.028322 -1.314992 2.107321 0.872078 -0.551226 -19.160401 -3.301361 7.633758 -2.315879 -30.129137 4.667764 1.315035 -54.293941 -1.409367 14.603443 -135.331065 -79.127913 155.647628 26.032137 -9.130072 -16.909485 28.605080 6.274991 -3.673053 46.430926 14.271444 14.197359 -96.426120 71.509677 -81.604442 -11.832858 16.710315 0.109155 
-0.594286 0.278478 0.963800 80.661224 -1.746730 90.721320 2.856989 -4.219276 -28.845033 -1.351003 15.065874 107.411987 4.081004 2.216742 -5.709175 0.000000 -0.000000 0.000000 4.016813 -0.520608 5.468603 -1.990665 9.000080 27.023364 0.991511 -10.729022 -23.432188 0.000000 -0.000000 0.000000 -1.814956 8.075591 17.694634 1.895813 -0.573110 -0.069765 -0.691900 0.814989 2.436488 1.928129 -1.820082 -18.522451 -1.364067 4.715480 -0.142101 -29.001756 6.517325 0.284337 -54.056930 2.353818 15.274591 -135.829839 -75.860003 153.519449 26.189451 -8.190031 -18.439062 26.986281 5.615413 -4.674529 48.627658 15.044629 15.817671 -120.816616 67.050346 -105.963898 -12.219453 15.685660 0.532460 
-0.469545 0.279880 0.993427 78.857415 -3.499667 93.107153 4.483150 -6.051553 -36.120660 -0.232871 19.020283 93.010796 4.953205 1.794083 -8.550194 0.000000 -0.000000 0.000000 -1.860586 -2.909139 12.162654 -2.916375 10.419198 19.258283 8.208244 -4.465078 -7.827762 0.000000 -0.000000 0.000000 -2.868635 12.434035 14.153307 0.805238 -0.841332 -0.291522 -1.600424 2.043333 2.530885 1.796834 -3.089018 -17.778148 -0.008608 3.111622 -0.260264 -28.387165 10.114992 -0.547206 -53.364579 4.967538 15.402565 -134.628680 -74.214060 151.611300 25.363459 -10.273915 -18.644148 26.154909 3.169092 -5.280118 50.370336 15.583667 18.422734 -133.209117 65.489488 -118.437808 -12.398252 15.690282 -0.566199 
-0.344592 0.280586 1.021568 79.970533 -4.448296 94.953317 6.022224 -9.826128 -39.994797 -2.232039 20.966278 73.345789 5.433681 3.173933 -8.095225 0.000000 -0.000000 0.000000 -6.602551 -5.788195 18.058929 -2.749879 10.356469 11.726078 12.720907 -2.985164 13.955149 0.000000 -0.000000 0.000000 -2.895315 15.368000 11.848151 0.085440 -2.540612 -1.118494 -2.109885 1.794312 2.993834 0.316071 -4.997148 -18.119775 1.393274 3.513389 -0.060464 -27.498577 13.482132 -0.712353 -54.065964 7.673152 14.826239 -138.845841 -73.862191 155.353402 24.676751 -11.564929 -18.510831 25.081279 1.088376 -5.862622 51.528348 15.144660 20.935973 -143.763045 65.077597 -128.705577 -10.938860 16.359339 -0.871781 
-0.219898 0.277735 1.038611 80.945688 -4.163838 96.558704 5.911084 -10.414453 -40.892885 -5.966137 15.498088 52.130969 6.820431 5.027841 -8.176951 0.000000 -0.000000 0.000000 -7.454245 -8.132725 21.295690 -3.987368 14.641098 10.850010 9.621544 -5.998480 25.761586 0.000000 -0.000000 0.000000 -2.874152 16.107151 9.673679 -0.613396 -2.708284 -2.090796 -1.992935 1.440518 3.676764 -1.096206 -7.156498 -18.635368 2.654453 4.214648 0.449753 -26.056739 16.068372 0.340890 -55.289411 9.130913 12.323117 -139.732906 -72.448805 157.923189 28.392475 -9.174335 -19.033110 23.839352 -0.010907 -5.744137 52.239599 13.919320 21.520083 -154.974190 65.810271 -138.784454 -11.197128 18.757554 -2.782485 
-0.096600 0.275035 1.046436 81.947620 -4.210774 96.285950 4.171779 -11.158755 -36.482048 -6.478233 8.553432 30.051266 5.718760 8.119287 -6.035313 0.000000 -0.000000 0.000000 -4.708815 -5.471269 22.491645 -4.257654 17.235161 21.734072 8.894535 -5.744186 20.754954 0.000000 -0.000000 0.000000 -3.879374 14.096835 8.462998 -0.946510 -1.538108 -0.359471 -1.728771 2.395618 3.487449 -0.915179 -5.785625 -19.543985 2.110833 2.906323 -0.550458 -26.460357 16.307787 0.151558 -55.685052 9.643696 11.700017 -146.808249 -73.315845 165.401526 27.371486 -9.276791 -17.771654 24.476508 0.376837 -5.015841 51.275523 11.988575 21.556689 -159.953467 67.528167 -143.914154 -13.019591 19.769333 -3.245366 
0.027598 0.275622 1.043902 84.032423 -5.038483 94.150129 -1.023252 -10.325513 -28.533486 -3.533598 4.346007 13.165038 2.473839 9.667572 -6.483883 0.000000 -0.000000 0.000000 -1.874576 -2.382319 22.947226 -3.862481 13.387842 37.806512 9.732745 -7.405631 19.759630 0.000000 -0.000000 0.000000 -5.492169 10.628080 10.490670 -1.315442 -0.152393 1.025591 -0.987771 2.956084 2.808892 -0.341304 -5.180249 -20.250111 1.828597 2.792503 -3.135154 -28.611710 15.240769 -1.087939 -54.766377 9.445157 12.030840 -156.123991 -74.809165 174.268334 24.823692 -11.253766 -15.705172 25.280355 0.066877 -4.672777 51.577643 7.742291 21.820435 -159.172330 70.484058 -144.192561 -10.686586 20.611525 -2.319494 
0.146942 0.275681 1.026186 87.283732 -5.226941 92.916204 -4.090533 -9.786124 -24.483649 -2.622589 6.373617 8.786850 1.747227 12.025645 -5.407585 0.000000 -0.000000 0.000000 0.394864 -1.530437 19.449211 -5.410510 6.786857 56.774879 9.185328 -8.911798 19.947473 0.000000 -0.000000 0.000000 -6.008857 8.268728 12.407305 -1.283825 -0.581535 0.852914 -1.008264 2.368708 2.930510 0.139375 -4.603706 -19.636276 2.696822 3.379357 -4.875092 -29.072149 12.725613 -0.858191 -55.361290 6.962496 12.611676 -166.843673 -76.391810 -176.395115 24.150738 -11.273571 -14.262569 25.318593 -0.549811 -4.521066 52.924048 3.517326 21.971320 -151.269746 76.038833 -137.900722 -12.269832 18.615596 -1.815736 
0.265635 0.276258 0.997144 89.633974 -5.572065 91.971220 -4.364912 -11.815220 -22.194320 -6.162756 4.633329 14.749208 9.803478 11.545181 -11.013546 0.000000 -0.000000 0.000000 -0.170752 -1.176581 12.973060 -4.553030 2.962065 77.787982 6.478900 -12.800898 16.114595 0.000000 -0.000000 0.000000 -6.746067 7.124515 13.737039 -0.772709 -1.125361 0.230335 -1.338747 0.732709 2.853839 0.916119 -5.408036 -17.939874 3.117815 5.240459 -4.031863 -30.156064 9.882891 -0.574051 -53.842272 3.126457 13.869052 -177.314529 -75.904180 -167.253203 22.533358 -11.030169 -13.225847 26.004925 -1.386866 -4.649851 53.749576 -1.738447 22.852873 -120.215430 79.933307 -108.463374 -9.933712 18.685672 1.512175 
